<?xml version="1.0" encoding="UTF-8" standalone="no"?>
<!-- Created with Inkscape (http://www.inkscape.org/) -->

<svg
   xmlns:dc="http://purl.org/dc/elements/1.1/"
   xmlns:cc="http://creativecommons.org/ns#"
   xmlns:rdf="http://www.w3.org/1999/02/22-rdf-syntax-ns#"
   xmlns:svg="http://www.w3.org/2000/svg"
   xmlns="http://www.w3.org/2000/svg"
   xmlns:sodipodi="http://sodipodi.sourceforge.net/DTD/sodipodi-0.dtd"
   xmlns:inkscape="http://www.inkscape.org/namespaces/inkscape"
   width="210mm"
   height="297mm"
   viewBox="0 0 744.09448819 1052.3622047"
   id="svg2"
   version="1.1"
   inkscape:version="0.91 r13725"
   sodipodi:docname="drawing.svg">
  <defs
     id="defs4" />
  <sodipodi:namedview
     id="base"
     pagecolor="#ffffff"
     bordercolor="#666666"
     borderopacity="1.0"
     inkscape:pageopacity="0.0"
     inkscape:pageshadow="2"
     inkscape:zoom="1.979899"
     inkscape:cx="322.81631"
     inkscape:cy="832.30998"
     inkscape:document-units="px"
     inkscape:current-layer="layer1"
     showgrid="false"
     inkscape:window-width="1070"
     inkscape:window-height="660"
     inkscape:window-x="51"
     inkscape:window-y="95"
     inkscape:window-maximized="0" />
  <metadata
     id="metadata7">
    <rdf:RDF>
      <cc:Work
         rdf:about="">
        <dc:format>image/svg+xml</dc:format>
        <dc:type
           rdf:resource="http://purl.org/dc/dcmitype/StillImage" />
        <dc:title></dc:title>
      </cc:Work>
    </rdf:RDF>
  </metadata>
  <g
     inkscape:label="Layer 1"
     inkscape:groupmode="layer"
     id="layer1">
    <rect
       style="opacity:1;fill:#00ff00;fill-opacity:1;stroke:#000000;stroke-width:2;stroke-linecap:round;stroke-linejoin:round;stroke-miterlimit:4;stroke-dasharray:none;stroke-dashoffset:0;stroke-opacity:1"
       id="rect4136"
       width="174.28572"
       height="100"
       x="114.28571"
       y="155.21935"
       ry="20"
       rx="14.285714" />
    <path
       style="opacity:1;fill:#ff00ff;fill-opacity:1;stroke:#000000;stroke-width:2;stroke-linecap:round;stroke-linejoin:round;stroke-miterlimit:4;stroke-dasharray:none;stroke-dashoffset:0;stroke-opacity:1"
       d="M 399.76758 144.14844 A 7.9162955 9.6840611 0 0 0 391.96875 152.24219 A 9.5964489 9.5964489 0 0 0 383.85742 147.77148 A 9.5964489 9.5964489 0 0 0 374.26172 157.36719 A 9.5964489 9.5964489 0 0 0 375.3457 161.79297 A 48.992397 48.992397 0 0 0 374.42578 162.32031 A 9.5964489 9.5964489 0 0 0 366.68555 158.37695 A 9.5964489 9.5964489 0 0 0 357.08984 167.97461 A 9.5964489 9.5964489 0 0 0 358.08984 172.22852 A 11.666782 11.414245 0 0 0 357.8457 172.2168 A 11.666782 11.414245 0 0 0 346.17969 183.63086 A 11.666782 11.414245 0 0 0 351.8125 193.38281 A 48.992397 48.992397 0 0 0 351.58984 194.25391 A 9.5964489 9.5964489 0 0 0 342.44141 203.83398 A 9.5964489 9.5964489 0 0 0 351.40039 213.39844 A 48.992397 48.992397 0 0 0 351.81445 215.24414 A 9.5964489 9.5964489 0 0 0 349.00781 222.01758 A 9.5964489 9.5964489 0 0 0 358.60352 231.61328 A 9.5964489 9.5964489 0 0 0 358.85742 231.60547 A 48.992397 48.992397 0 0 0 359.48438 232.48242 A 9.5964489 9.5964489 0 0 0 355.57422 240.19922 A 9.5964489 9.5964489 0 0 0 365.16992 249.79688 A 9.5964489 9.5964489 0 0 0 366.39258 249.70508 A 9.5964489 9.5964489 0 0 0 365.67578 253.33203 A 9.5964489 9.5964489 0 0 0 375.27148 262.92773 A 9.5964489 9.5964489 0 0 0 383.60742 258.07031 A 9.5964489 9.5964489 0 0 0 391.93945 262.92773 A 9.5964489 9.5964489 0 0 0 400.53711 257.56836 A 14.002848 12.740156 0 0 0 413.91016 266.57617 A 14.002848 12.740156 0 0 0 427.91211 253.83594 A 14.002848 12.740156 0 0 0 426.60938 248.50781 A 14.002848 12.740156 0 0 0 436.13281 251.92969 A 14.002848 12.740156 0 0 0 450.13672 239.18945 A 14.002848 12.740156 0 0 0 442.49414 227.85352 A 48.992397 48.992397 0 0 0 442.63672 227.56641 A 13.827692 16.353073 0 0 0 447.24414 228.52148 A 13.827692 16.353073 0 0 0 461.07227 212.16797 A 13.827692 16.353073 0 0 0 453.52539 197.61719 A 11.095529 8.5701466 0 0 0 459.09766 190.19727 A 11.095529 8.5701466 0 0 0 448.00195 181.62695 A 11.095529 8.5701466 0 0 0 447.22266 181.64844 A 11.042818 9.5275879 0 0 0 448.94336 176.56055 A 11.042818 9.5275879 0 0 0 437.90039 167.0332 A 11.042818 9.5275879 0 0 0 433.67773 167.76562 A 15.935341 12.652344 0 0 0 434.89648 162.92383 A 15.935341 12.652344 0 0 0 418.96094 150.27148 A 15.935341 12.652344 0 0 0 407.67578 154.00195 A 7.9162955 9.6840611 0 0 0 407.68359 153.83203 A 7.9162955 9.6840611 0 0 0 399.76758 144.14844 z "
       id="path4138" />
    <path
       style="opacity:1;fill:#ff5eff;fill-opacity:1;stroke:none;stroke-width:2;stroke-linecap:round;stroke-linejoin:round;stroke-miterlimit:4;stroke-dasharray:none;stroke-dashoffset:0;stroke-opacity:1"
       id="path4261"
       d="m 375.83815,203.35069 c 1.63203,0.0451 -0.22119,4.91675 0.32142,7.89972 0.45586,2.72421 0.88969,5.40837 1.60629,8.25223 0.71638,2.63383 1.42169,5.32231 2.83893,7.92645 1.27971,1.63551 2.60073,3.25398 3.96817,4.30257 1.57955,0.76648 3.19501,1.91294 4.75603,2.55513 0.87372,0.3284 1.70516,0.49974 2.53743,0.67865 1.70263,7.26094 -0.82509,11.0721 -6.52486,12.2964 l 0,0 c -0.90418,-0.24782 -1.80912,-0.49183 -2.76559,-0.95065 -1.70118,-0.86032 -3.4576,-1.90315 -5.20647,-3.1566 -1.68265,-1.56083 -3.3497,-3.45647 -4.85834,-5.69039 -1.63307,-2.97977 -2.62234,-5.9801 -3.46032,-9.03987 -0.82318,-2.95234 -1.5093,-5.85016 -1.71728,-8.517 -0.68063,-3.07546 -1.09762,-6.15039 -0.93214,-8.5792 0.84598,-12.41748 5.63978,-8.08241 9.43673,-7.97744 z"
       inkscape:connector-curvature="0"
       sodipodi:nodetypes="scccccccccccccss" />
  </g>
</svg>
